<?xml version="1.0" encoding="UTF-8"?>
<svg width="44px" height="44px" viewBox="0 0 44 44" version="1.1" xmlns="http://www.w3.org/2000/svg" xmlns:xlink="http://www.w3.org/1999/xlink">
    <!-- Generator: Sketch 51.2 (57519) - http://www.bohemiancoding.com/sketch -->
    <title>space</title>
    <desc>Created with Sketch.</desc>
    <defs></defs>
    <g id="Page-1" stroke="none" stroke-width="1" fill="none" fill-rule="evenodd">
        <g id="space" fill-rule="nonzero">
            <path d="M44,22 C44,34.1502734 34.1502734,44 22,44 C9.84972656,44 0,34.1502734 0,22 C0,9.84972656 9.84972656,0 22,0 C34.1502734,0 44,9.84972656 44,22 Z" id="Shape" fill="#415F78"></path>
            <path d="M26.4647795,33.6844907 C26.8146056,35.2221491 27,36.8222764 27,38.4658385 C27,40.1723727 26.7998478,41.8319503 26.4235248,43.4235248 C24.8319503,43.7998478 23.1723727,44 21.4658385,44 C9.61057453,44 0,34.3894255 0,22.5341615 C0,20.8276273 0.200152174,19.1680497 0.576475155,17.5764752 C2.16804969,17.2001522 3.82762733,17 5.53416149,17 C5.90251863,17 6.2687795,17.0093913 6.6326087,17.0276708 C6.62313354,17.0980217 6.61659317,17.1687081 6.61659317,17.2403168 C6.61659317,18.8827888 9.15232919,20.2142578 12.2803882,20.2142578 C13.5919006,20.2142578 14.798264,19.979559 15.7582733,19.5866335 C17.4834224,20.522913 19.0650186,21.6895311 20.4638199,23.0439752 C19.8144783,24.2526863 19.4255776,25.7817919 19.4255776,27.4464006 C19.4255776,31.3556988 21.5654534,34.5248447 24.2050807,34.5248447 C25.0225435,34.5248447 25.7918758,34.2202981 26.4647795,33.6844907 Z" id="Shape" fill="#64D2CD"></path>
            <path d="M26.4573749,33.9153165 C26.8120407,35.474248 27,37.0965127 27,38.762813 C27,40.4929567 26.7970788,42.1754942 26.4155495,43.7890877 C26.0830715,43.8677229 25.746938,43.9367518 25.4087643,44 C12.138634,42.3816458 1.61835419,31.861366 0,18.5912357 C0.0632481754,18.253062 0.132277098,17.9169285 0.210912262,17.5844505 C1.82450583,17.2029212 3.50704332,17 5.23718695,17 C5.58513693,17 5.93113165,17.0081611 6.27508611,17.0243131 C6.30041939,17.0255033 6.32541262,17.0275436 6.35074589,17.0288187 C6.34122466,17.0998879 6.3345938,17.1713822 6.3345938,17.2436415 C6.3345938,18.9088367 8.90541111,20.2587262 12.076746,20.2587262 C13.4057228,20.2587262 14.6281808,20.0210355 15.6013016,19.623014 C17.3506577,20.5723318 18.9550701,21.7542395 20.3733934,23.127592 C19.7150684,24.3530254 19.3207024,25.9032858 19.3207024,27.590924 C19.3207024,31.5543063 21.4901828,34.7672966 24.1663287,34.7672966 C24.9951859,34.7672966 25.7751617,34.4585367 26.4573749,33.9153165 Z" id="Shape" fill="#8CEBEB"></path>
            <path d="M17.2969192,38.7271221 C17.9826906,39.4110665 17.9826906,40.5198603 17.2969192,41.2037172 L14.493167,44 C11.3268191,42.9358627 8.47644746,41.1873431 6.11799453,38.9309657 L8.74325826,36.3126958 C9.42902961,35.6287514 10.5407852,35.6287514 11.2264687,36.3126958 L12.4681618,37.5510809 C12.6543762,37.7367993 12.7882645,37.9543901 12.8733384,38.1857281 L13.5721035,37.4888245 C14.2578749,36.8048801 15.3696304,36.8048801 16.055314,37.4888245 L17.2969192,38.7271221 Z M20.5670415,23.2289641 C20.1637086,23.2598734 19.7690674,23.4278167 19.4605537,23.735421 L12.6628924,30.5149731 C11.977121,31.1989175 11.977121,32.3077113 12.6628924,32.9915681 L13.9044976,34.2298657 C14.590269,34.9138101 15.7020245,34.9138101 16.3877081,34.2298657 L17.5334405,33.0871855 C17.5588134,33.1160809 17.583484,33.1453265 17.6110518,33.1729084 L21.8878384,37.4383014 C22.5736097,38.1222459 23.6853653,38.1222459 24.3710489,37.4383014 L27,34.8163539 C26.0635722,30.3107792 23.770966,26.3008036 20.5670415,23.2289641 Z M9.10155206,31.3080194 L13.4471704,26.9738904 C14.1328539,26.289946 14.1328539,25.1811522 13.4471704,24.4972953 L12.2055651,23.2589978 L15.7629547,19.7110853 C15.7614621,19.7102097 15.7598818,19.7094216 15.7583893,19.708546 C12.8559549,18.126131 9.56528837,17.1639155 6.06505379,17 L3.51432851,19.5440176 C2.82855716,20.2278745 2.82855716,21.3367558 3.51432851,22.0206127 L4.75593375,23.2589102 L4.13513113,23.878059 C3.44935978,24.5620034 3.44935978,25.6707972 4.13513113,26.3546541 L5.37673636,27.5929516 C4.69105281,28.276896 4.69105281,29.3856898 5.37673636,30.0695467 L6.6183416,31.3078442 C7.30411295,31.9918762 8.4158685,31.9918762 9.10155206,31.3080194 Z" id="Shape" fill="#3CAF96"></path>
            <path d="M17,41.9074558 L15.1036724,44 C12.0399687,42.8607853 9.28199835,40.9889036 7,38.5733335 L9.33203361,36 C11.5713873,38.3956036 14.1577597,40.3978768 17,41.9074558 Z" id="Shape" fill="#1E9682"></path>
            <path d="M39.2727273,17 C40.9521818,17 42.4974545,17.5101687 43.7285455,18.364675 C43.9071818,19.4031313 44,20.4668562 44,21.55 C44,24.3354125 43.3858182,26.9922062 42.2745455,29.4201188 C41.3590909,29.7915125 40.3434545,30 39.2727273,30 C35.2560909,30 32,27.0898687 32,23.5 C32,19.9101312 35.2560909,17 39.2727273,17 Z" id="Shape" fill="#E65AA0"></path>
            <path d="M43,23.5 C43,23.9487438 42.5896118,24.3125 42.083341,24.3125 C42.083341,24.3125 38.120624,24.3103063 36.3626553,24.306975 C35.916059,24.3060812 35.5907367,24.67845 35.6981692,25.0627625 C35.6992692,25.066825 35.7004608,25.0708875 35.7015608,25.07495 C35.7773685,25.3438063 36.0520912,25.5313313 36.3647636,25.5313313 L40.2185815,25.5313313 C40.7067941,25.5313313 41.1331322,25.857875 41.1646653,26.2898 C41.1992233,26.7629187 40.7764602,27.15625 40.2500229,27.15625 L38.2269564,27.15625 C37.6146282,27.15625 37.3055308,27.8198187 37.7478188,28.1951125 C38.6626445,28.9712125 39.8037933,29.539475 41.0749244,29.8140187 C40.5164957,29.934675 39.9335922,30 39.3332722,30 C35.2831976,30 32,27.0898687 32,23.5 C32,19.9101312 35.2831976,17 39.3332722,17 C39.9335922,17 40.5164957,17.0654062 41.0749244,17.1859812 C39.8037933,17.460525 38.6626445,18.0287875 37.7478188,18.8048875 C37.3054391,19.1801 37.6146282,19.84375 38.2269564,19.84375 L40.2185815,19.84375 C40.679661,19.84375 41.0929826,20.1334875 41.1572404,20.5381937 C41.236898,21.039425 40.8000183,21.46875 40.2500229,21.46875 L36.3648553,21.46875 C36.0521829,21.46875 35.7773685,21.656275 35.7016525,21.9251312 C35.7005525,21.9291938 35.6993608,21.9332563 35.6982608,21.9373187 C35.5908284,22.3216312 35.9161507,22.6939188 36.362747,22.6931062 C38.120624,22.6896937 42.083341,22.6875 42.083341,22.6875 C42.5896118,22.6875 43,23.0512562 43,23.5 Z" id="Shape" fill="#BE4178"></path>
            <path d="M16.5,0 C19.5375583,0 22,2.46244167 22,5.5 C22,8.53755833 19.5375583,11 16.5,11 C13.4624417,11 11,8.53755833 11,5.5 C11,2.46244167 13.4624417,0 16.5,0 Z" id="Shape" fill="#DCA041"></path>
            <path d="M16.8398876,10.8426083 C16.4805281,10.9446333 16.1054382,11 15.7191011,11 C13.1128202,11 11,8.53755833 11,5.5 C11,2.46244167 13.1128202,0 15.7191011,0 C16.1054382,0 16.4805281,0.0553666667 16.8398876,0.157391667 C15.2833708,0.5995 14.029427,1.940675 13.506,3.68225 C13.5610562,3.67308333 13.6168989,3.66666667 13.6741573,3.66666667 C14.3257079,3.66666667 14.8539326,4.2823 14.8539326,5.04166667 C14.8539326,5.80103333 14.3257079,6.41666667 13.6741573,6.41666667 C13.5424157,6.41666667 13.4161798,6.39045 13.2978876,6.343975 C13.5895281,8.54883333 15.004,10.3212083 16.8398876,10.8426083 Z M15.6404494,2.75 C15.6404494,3.256275 15.992573,3.66666667 16.4269663,3.66666667 C16.8613596,3.66666667 17.2134831,3.256275 17.2134831,2.75 C17.2134831,2.243725 16.8613596,1.83333333 16.4269663,1.83333333 C15.992573,1.83333333 15.6404494,2.243725 15.6404494,2.75 Z M17.2134831,7.33333333 C16.7790899,7.33333333 16.4269663,7.743725 16.4269663,8.25 C16.4269663,8.756275 16.7790899,9.16666667 17.2134831,9.16666667 C17.6478764,9.16666667 18,8.756275 18,8.25 C18,7.743725 17.6478764,7.33333333 17.2134831,7.33333333 Z" id="Shape" fill="#B97D23"></path>
            <path d="M37,34 C37,35.1046 36.1046,36 35,36 C33.8954,36 33,35.1046 33,34 C33,32.8954 33.8954,32 35,32 C36.1046,32 37,32.8954 37,34 Z" id="Shape" fill="#6C9BAA"></path>
            <path d="M26.8749041,3.73004373 L26.4212998,3.94652923 C26.3408742,3.98492446 26.2747316,4.04264277 26.2307324,4.1128249 L25.9826495,4.50865542 C25.8008052,4.79875269 25.3234279,4.79875269 25.1415836,4.50865542 L24.8935008,4.1128249 C24.8495015,4.04264277 24.7833589,3.98492446 24.7029333,3.94652923 L24.249329,3.73004373 C23.9168903,3.57144384 23.9168903,3.15478453 24.249329,2.99618464 L24.7029333,2.77969914 C24.7833589,2.74130391 24.8495015,2.6835856 24.8935008,2.61340348 L25.1415836,2.21757295 C25.3234279,1.92747568 25.8008052,1.92747568 25.9826495,2.21757295 L26.2307324,2.61340348 C26.2747316,2.6835856 26.3408742,2.74130391 26.4212998,2.77969914 L26.8749041,2.99618464 C27.2073428,3.15478453 27.2073428,3.57144384 26.8749041,3.73004373 Z M29.750671,18.2698726 L29.2970667,18.0533871 C29.2166411,18.0149919 29.1504985,17.9573572 29.1064992,17.8870915 L28.8584164,17.4912609 C28.6765721,17.2011637 28.1991948,17.2011637 28.0173505,17.4912609 L27.7692676,17.8870915 C27.7252684,17.9572736 27.6591258,18.0149919 27.5787002,18.0533871 L27.1250959,18.2698726 C26.7926572,18.4285562 26.7926572,18.8451318 27.1250959,19.0038154 L27.5787002,19.2203009 C27.6591258,19.2586961 27.7252684,19.3164144 27.7692676,19.3865965 L28.0173505,19.7824271 C28.1991948,20.0725243 28.6765721,20.0725243 28.8584164,19.7824271 L29.1064992,19.3865965 C29.1504985,19.3164144 29.2166411,19.2586961 29.2970667,19.2203009 L29.750671,19.0038154 C30.0831097,18.8451318 30.0831097,18.4284725 29.750671,18.2698726 Z" id="Shape" fill="#B4D7DC"></path>
            <path d="M31.7878328,6.87180125 L31.401837,7.1060253 C31.3333986,7.14756658 31.2771143,7.21001425 31.2396731,7.28594701 L31.0285663,7.71421137 C30.8738254,8.02807883 30.4675998,8.02807883 30.3128589,7.71421137 L30.1017522,7.28594701 C30.0643109,7.21001425 30.0080266,7.14756658 29.9395882,7.1060253 L29.5535924,6.87180125 C29.2707028,6.7002059 29.2707028,6.24940607 29.5535924,6.07781071 L29.9395882,5.84358667 C30.0080266,5.80204539 30.0643109,5.73959771 30.1017522,5.66366495 L30.3128589,5.23540059 C30.4675998,4.92153314 30.8738254,4.92153314 31.0285663,5.23540059 L31.2396731,5.66366495 C31.2771143,5.73959771 31.3333986,5.80204539 31.401837,5.84358667 L31.7878328,6.07781071 C32.0707224,6.24940607 32.0707224,6.7002059 31.7878328,6.87180125 Z M24.4464076,15.1281987 L24.0604118,14.8939747 C23.9919734,14.8524334 23.9356891,14.7899857 23.8982478,14.714053 L23.6871411,14.2857886 C23.5324002,13.9719212 23.1261746,13.9719212 22.9714337,14.2857886 L22.7603269,14.714053 C22.7228857,14.7899857 22.6666014,14.8524334 22.598163,14.8939747 L22.2121672,15.1281987 C21.9292776,15.2997941 21.9292776,15.7505939 22.2121672,15.9221893 L22.598163,16.1564133 C22.6666014,16.1979546 22.7228857,16.2604023 22.7603269,16.336335 L22.9714337,16.7645994 C23.1261746,17.0784669 23.5324002,17.0784669 23.6871411,16.7645994 L23.8982478,16.336335 C23.9356891,16.2604023 23.9919734,16.1979546 24.0604118,16.1564133 L24.4464076,15.9221893 C24.7292972,15.7505939 24.7292972,15.2997941 24.4464076,15.1281987 Z" id="Shape" fill="#D29137"></path>
            <path d="M8.58542212,12.7511372 L8.17749249,12.9702621 C8.10516515,13.0091255 8.0456826,13.0675475 8.00611377,13.1385854 L7.78301109,13.539242 C7.61947717,13.8328763 7.19016831,13.8328763 7.02663439,13.539242 L6.80353171,13.1385854 C6.76396288,13.0675475 6.70448033,13.0091255 6.63215299,12.9702621 L6.22422336,12.7511372 C5.92525888,12.5906036 5.92525888,12.1688642 6.22422336,12.0083306 L6.63215299,11.7892056 C6.70448033,11.7503422 6.76396288,11.6919202 6.80353171,11.6208824 L7.02663439,11.2202257 C7.19016831,10.9265914 7.61947717,10.9265914 7.78301109,11.2202257 L8.00611377,11.6208824 C8.0456826,11.6919202 8.10516515,11.7503422 8.17749249,11.7892056 L8.58542212,12.0083306 C8.88438661,12.1688642 8.88438661,12.5906036 8.58542212,12.7511372 Z M30.7757766,27.2488628 L30.367847,27.0297379 C30.2955197,26.9908745 30.2360371,26.9324525 30.1964683,26.8614146 L29.9733656,26.460758 C29.8098317,26.1671237 29.3805228,26.1671237 29.2169889,26.460758 L28.9938862,26.8614146 C28.9543174,26.9324525 28.8948348,26.9908745 28.8225075,27.0297379 L28.4145779,27.2488628 C28.1156134,27.4093964 28.1156134,27.8311358 28.4145779,27.9916694 L28.8225075,28.2107944 C28.8948348,28.2496578 28.9543174,28.3080798 28.9938862,28.3791176 L29.2169889,28.7797743 C29.3805228,29.0734086 29.8098317,29.0734086 29.9733656,28.7797743 L30.1964683,28.3791176 C30.2360371,28.3080798 30.2955197,28.2496578 30.367847,28.2107944 L30.7757766,27.9916694 C31.0747411,27.8311358 31.0747411,27.4093964 30.7757766,27.2488628 Z" id="Shape" fill="#FFC772"></path>
            <path d="M35.7748442,13.2439769 L35.3652181,13.4507126 C35.29259,13.4873786 35.2328601,13.5424974 35.1931267,13.6095188 L34.9690963,13.9875224 C34.8048823,14.2645546 34.3737881,14.2645546 34.2095741,13.9875224 L33.9855436,13.6095188 C33.9458102,13.5424974 33.8860803,13.4873786 33.8134522,13.4507126 L33.4038262,13.2439769 C33.1036184,13.0925198 33.1036184,12.6946255 33.4038262,12.5431685 L33.8134522,12.3364328 C33.8860803,12.2997667 33.9458102,12.2446479 33.9855436,12.1776265 L34.2095741,11.799623 C34.3737881,11.5225907 34.8048823,11.5225907 34.9690963,11.799623 L35.1931267,12.1776265 C35.2328601,12.2446479 35.29259,12.2997667 35.3652181,12.3364328 L35.7748442,12.5431685 C36.0750519,12.6946255 36.0750519,13.0925198 35.7748442,13.2439769 Z M17.5961738,14.3477921 L17.1865478,14.1410564 C17.1139197,14.1043903 17.0541898,14.0493514 17.0144564,13.9822501 L16.7904259,13.6042465 C16.6262119,13.3272143 16.1951177,13.3272143 16.0309037,13.6042465 L15.8068733,13.9822501 C15.7671399,14.0492715 15.70741,14.1043903 15.6347819,14.1410564 L15.2251558,14.3477921 C14.9249481,14.499329 14.9249481,14.8971434 15.2251558,15.0486803 L15.6347819,15.255416 C15.70741,15.2920821 15.7671399,15.3472009 15.8068733,15.4142223 L16.0309037,15.7922258 C16.1951177,16.0692581 16.6262119,16.0692581 16.7904259,15.7922258 L17.0144564,15.4142223 C17.0541898,15.3472009 17.1139197,15.2920821 17.1865478,15.255416 L17.5961738,15.0486803 C17.8963816,14.8971434 17.8963816,14.4992491 17.5961738,14.3477921 Z M28.8505021,11 C27.894304,11 27.1192001,11.7152671 27.1192001,12.5976483 C27.1192001,13.4800294 27.894304,14.1952965 28.8505021,14.1952965 C29.8067001,14.1952965 30.581804,13.4800294 30.581804,12.5976483 C30.581804,11.7152671 29.8067001,11 28.8505021,11 Z" id="Shape" fill="#3C5064"></path>
        </g>
    </g>
</svg>